<svg viewBox="0 0 209.1 39.7">
<path d="M84.7 4v32H87a3 3 0 0 0 3-3v-.5a10.6 10.6 0 0 0 8.8 4c7 0 12.3-5.6 12.3-13 0-7.6-5.2-13.3-12.4-13.3a10.7 10.7 0 0 0-8.4 3.7V4h-5.6zM57.4 4v29a2.9 2.9 0 0 0 2.9 2.9H63V4.1h-5.6zm111.4 0v6.1h-4.9l4.7 4.7h.2v12.9c0 5.9 3.5 8.8 9.3 8.8a21.3 21.3 0 0 0 4.5-.6v-4.6l-3.4.3c-3.3 0-5-1.1-5-4.4V14.8h7.5V10h-7.5V4h-5.4zm-39.4 6.1a11.4 11.4 0 0 0-.2 0 13 13 0 0 0-13 13.2 13 13 0 0 0 13.5 13.2 14 14 0 0 0 10-4l-1-1a3.9 3.9 0 0 0-4.4-.8 10.1 10.1 0 0 1-4.5 1c-4.3 0-7.5-2.5-8.2-6.6h18.8a15.7 15.7 0 0 0 .4-3.4A11.4 11.4 0 0 0 129.4 10zm18 0v25.8h5.4V21.3c0-4.5 3.2-6.6 7.3-6.6h1.9l-4.5-4.6c-1 0-5.1.2-5.1 3.3V10h-5zm51.4 0a12.4 12.4 0 0 0-10.7 5.4l1.2 1.2a2.8 2.8 0 0 0 3.7.2 7.7 7.7 0 0 1 5.2-2c3.5 0 5.4 2 5.4 5.4V22h-7.1c-5.7 0-9.3 2.8-9.3 7.2 0 4.3 3.5 7.3 8.8 7.3a10.1 10.1 0 0 0 8-3.4v2.8h5V20.7c0-6.8-4-10.6-10.2-10.6zM71 10.1l5.6 5.6V10H71zm58 4.6c3.5 0 6.4 2.3 6.4 6.2h-13.7a7.4 7.4 0 0 1 7.3-6.2zm-31.1.4c4.3 0 7.6 3.3 7.6 8.2 0 4.8-3.3 8.3-7.6 8.3-4 0-7.7-2.8-7.7-8.3 0-5.5 3.7-8.2 7.7-8.2zm-26.9.2v20.6h5.6v-15L71 15.2zm126.2 10.6h6.4v.5c0 3.4-2.8 6-6.5 6-2.6 0-4.4-1.3-4.4-3.4 0-2 1.6-3.1 4.5-3.1z" fill="rgba(20, 19, 25, 1)" />
<path d="M7.3 0A7.3 7.3 0 0 0 0 7.3v25.2a7.3 7.3 0 0 0 7.3 7.2h21a7.3 7.3 0 0 0 7.3-7.2V7.3A7.3 7.3 0 0 0 28.4 0H7.3zm10.5 8.6a8.9 8.9 0 0 1 5.5 1.7l-1 1.3a1.9 1.9 0 0 1-2.3.4 6.2 6.2 0 0 0-2.2-.5 5.6 5.6 0 0 0-5.2 3.8H9.3c1-4.7 4.8-6.7 8.5-6.7zM9.3 19.3h3.3v12A3.3 3.3 0 0 1 9.3 28v-8.7zm13.7 0h3.3v8.6a3.3 3.3 0 0 1-3.3 3.3V19.3zm-6.7 2.9h3.2v9h-3.2v-9z" fill="rgba(20, 19, 25, 1)" />
<path d="M17.8 8.6c-3.7 0-7.5 2-8.5 6.7h3.3a5.6 5.6 0 0 1 5.2-3.8 6.2 6.2 0 0 1 2.2.5 1.9 1.9 0 0 0 2.3-.4l1-1.3a8.9 8.9 0 0 0-5.5-1.7zM9.3 19.3V28a3.3 3.3 0 0 0 3.3 3.3v-12zm13.7 0v11.9a3.3 3.3 0 0 0 3.3-3.3v-8.6zm-6.7 3v8.9h3.2v-9h-3.2z" fill="rgba(30, 215, 96, 1)" />
</svg>
