<svg viewBox="0 0 511.99 512"><path d="M511.67 498.75l-12.8-51.2a74.35 74.35 0 00-48.75-52.88l-93.87-31.28c-22.89-9.53-33.36-46.4-35.62-60.4a88.7 88.7 0 0031.36-57.66 17.4 17.4 0 012.58-10.98 10.66 10.66 0 007.32-6.4c6.14-14.88 10-30.6 11.43-46.62 0-.87-.1-1.73-.32-2.58a27.43 27.43 0 00-10.35-15.53v-56.55c0-34.37-10.5-48.47-21.54-56.64C339 33.47 321.27 0 255.99 0a111.23 111.23 0 00-106.67 106.67v56.55a27.43 27.43 0 00-10.35 15.53c-.21.85-.32 1.71-.32 2.58a159.45 159.45 0 0011.44 46.64 9.07 9.07 0 006.4 6.12c1.2.6 3.43 3.7 3.43 11.24a88.68 88.68 0 0031.54 57.78c-2.24 13.97-12.66 50.81-34.9 60.11l-94.7 31.45a74.35 74.35 0 00-48.73 52.84l-12.8 51.2a10.67 10.67 0 0010.33 13.3h490.66a10.67 10.67 0 0010.35-13.26z"/></svg>
