<svg viewBox="0 0 512 512"><path d="M463.75 48.25c-64.34-64.33-169.02-64.33-233.35 0a164.95 164.95 0 00-40.18 167.46L4.4 401.54a14.99 14.99 0 00-4.4 10.6V497a15 15 0 0015 15h84.86c3.98 0 7.8-1.58 10.6-4.4l21.21-21.22a15 15 0 004.3-12.33l-2.64-22.8 31.58-2.97a14.98 14.98 0 0013.52-13.52l2.98-31.58 22.79 2.65c4.23.57 8.5-.85 11.7-3.7a15.04 15.04 0 005.03-11.2V363h27.42c3.98 0 7.8-1.58 10.6-4.4l38.47-37.95c58.74 19.04 122.38 4.93 166.33-39.05 64.33-64.33 64.33-169.01 0-233.35zM421.3 154.32a45.04 45.04 0 01-63.63 0 45.04 45.04 0 010-63.63 45.04 45.04 0 0163.63 0 45.04 45.04 0 010 63.63z"/></svg>
