<svg viewBox="0 0 416 512"><path d="M128 448a16 16 0 0016-16V224a16 16 0 00-32 0v208a16 16 0 0016 16zm160 0a16 16 0 0016-16V224a16 16 0 00-32 0v208a16 16 0 0016 16zm-80 0a16 16 0 0016-16V224a16 16 0 00-32 0v208a16 16 0 0016 16zM376 64h-88V48c0-26.47-21.53-48-48-48h-64c-26.47 0-48 21.53-48 48v16H40C17.94 64 0 81.94 0 104v56a16 16 0 0016 16h8.74l13.83 290.28A47.94 47.94 0 0086.5 512H329.5a47.94 47.94 0 0047.94-45.72L391.26 176H400a16 16 0 0016-16v-56c0-22.06-17.94-40-40-40zM160 48c0-8.82 7.18-16 16-16h64c8.82 0 16 7.18 16 16v16h-96zM32 104a8 8 0 018-8h336a8 8 0 018 8v40H32zm313.47 360.76A15.98 15.98 0 01329.49 480H86.5c-8.55 0-15.57-6.7-15.98-15.24L56.78 176h302.44z"/></svg>
